<?xml version="1.0" encoding="UTF-8" standalone="no"?>
<svg width="612px" height="170px" viewBox="0 0 612 170" version="1.1" xmlns="http://www.w3.org/2000/svg" xmlns:xlink="http://www.w3.org/1999/xlink">
    <!-- Generator: Sketch 41.2 (35397) - http://www.bohemiancoding.com/sketch -->
    <title>Group 2</title>
    <desc>Created with Sketch.</desc>
    <defs></defs>
    <g id="Page-1" stroke="none" stroke-width="1" fill="none" fill-rule="evenodd">
        <g id="Desktop-HD" transform="translate(-427.000000, -468.000000)" fill="#FFFFFF">
            <g id="Group-2" transform="translate(427.000000, 468.000000)">
                <g id="img_vv_quote_2">
                    <g id="Page-1">
                        <g id="Desktop-HD">
                            <g id="Group">
                                <path d="M6.379,1.566 C2.893,3.246 0.205,6.732 0.205,9.966 C0.205,12.192 1.801,13.368 3.481,13.368 C5.371,13.368 7.219,11.772 7.219,9.756 C7.219,7.992 6.001,7.026 4.615,7.026 C4.531,7.026 4.279,7.026 4.195,7.068 C4.867,5.598 6.799,4.212 8.311,3.54 L6.379,1.566 Z M14.905,1.566 C11.419,3.246 8.773,6.732 8.773,9.966 C8.773,12.192 10.285,13.368 12.007,13.368 C13.897,13.368 15.745,11.772 15.745,9.756 C15.745,7.992 14.527,7.026 13.141,7.026 C13.015,7.026 12.805,7.026 12.721,7.068 C13.393,5.598 15.325,4.212 16.837,3.54 L14.905,1.566 Z M16.123,30 L31.411,30 C38.425,30 41.155,25.59 41.155,21.684 C41.155,19.206 39.727,16.686 37.123,16.014 C40.525,15.678 43.507,12.486 43.507,8.706 C43.507,5.136 40.777,1.986 35.905,1.986 L22.297,1.986 L16.123,30 Z M37.123,9.714 C37.123,11.352 36.199,13.242 33.301,13.242 L25.783,13.242 L27.169,7.068 L34.225,7.068 C35.905,7.068 37.123,8.244 37.123,9.714 Z M35.191,21.18 C35.191,23.154 33.637,24.918 30.907,24.918 L23.221,24.918 L24.649,18.324 L32.083,18.324 C34.015,18.324 35.191,19.542 35.191,21.18 Z M44.641,21.39 C44.641,27.06 48.757,30.504 55.141,30.504 C57.661,30.504 60.349,29.748 62.323,28.404 L60.643,24.75 C59.383,25.716 57.283,26.262 55.519,26.262 C51.781,26.262 49.975,23.784 49.975,22.062 L49.975,21.558 L65.053,21.558 C65.263,20.886 65.473,19.458 65.473,18.282 C65.473,12.612 61.525,9.21 56.359,9.21 C49.597,9.21 44.641,14.796 44.641,21.39 Z M60.685,17.946 L50.521,17.946 C50.983,15.72 53.167,13.452 56.023,13.452 C59.257,13.452 60.685,15.51 60.685,17.526 L60.685,17.946 Z M84.961,12.402 C83.617,10.386 81.181,9.21 78.493,9.21 C71.563,9.21 67.783,15.972 67.783,22.104 C67.783,27.48 70.891,30.504 75.511,30.504 C77.947,30.504 79.879,29.496 81.601,27.48 L81.013,30 L86.389,30 L90.883,9.714 L85.507,9.714 L84.961,12.402 Z M73.369,21.012 C73.369,17.274 75.847,13.956 79.333,13.956 C81.475,13.956 83.197,14.964 84.079,16.308 L82.525,23.364 C81.433,24.75 79.753,25.758 77.863,25.758 C75.301,25.758 73.369,23.91 73.369,21.012 Z M101.509,9.714 L96.133,9.714 L93.067,23.658 C92.983,24.036 92.857,24.96 92.857,25.296 C92.857,28.446 95.293,30.504 99.199,30.504 C102.181,30.504 104.365,28.866 105.961,27.354 L105.373,30 L110.707,30 L115.201,9.714 L109.867,9.714 L106.843,23.364 C105.667,24.498 103.903,25.758 102.013,25.758 C100.123,25.758 98.611,25.002 98.611,23.154 C98.611,22.776 98.695,22.314 98.779,21.936 L101.509,9.714 Z M118.099,26.094 C118.099,29.118 120.535,30.504 124.147,30.504 C125.449,30.504 126.709,30.168 127.507,29.622 L127.297,25.338 C127.045,25.548 126.373,25.758 125.827,25.758 C124.483,25.758 123.853,25.086 123.853,23.994 C123.853,23.742 123.895,23.406 123.937,23.154 L125.869,14.334 L129.985,14.334 L131.077,9.714 L126.961,9.714 L128.179,4.17 L122.803,4.17 L121.585,9.714 L118.225,9.714 L117.175,14.334 L120.535,14.334 L118.267,24.708 C118.141,25.212 118.099,25.8 118.099,26.094 Z M135.361,4.38 C135.361,5.85 136.579,7.11 138.259,7.11 C139.855,7.11 141.829,5.766 141.829,3.456 C141.829,1.986 140.611,0.726 138.931,0.726 C137.335,0.726 135.361,2.028 135.361,4.38 Z M130.195,30 L135.529,30 L140.023,9.714 L134.689,9.714 L130.195,30 Z M141.997,30 L147.373,30 L150.817,14.376 L154.933,14.376 L155.983,9.714 L151.825,9.714 L152.077,8.622 C152.497,6.774 153.379,5.766 155.017,5.766 C155.731,5.766 156.445,5.934 156.949,6.312 L158.797,2.7 C157.495,1.86 155.899,1.566 154.345,1.566 C150.271,1.566 147.709,4.296 146.743,8.622 L146.491,9.714 L143.131,9.714 L142.123,14.376 L145.483,14.376 L141.997,30 Z M164.383,9.714 L159.007,9.714 L155.941,23.658 C155.857,24.036 155.731,24.96 155.731,25.296 C155.731,28.446 158.167,30.504 162.073,30.504 C165.055,30.504 167.239,28.866 168.835,27.354 L168.247,30 L173.581,30 L178.075,9.714 L172.741,9.714 L169.717,23.364 C168.541,24.498 166.777,25.758 164.887,25.758 C162.997,25.758 161.485,25.002 161.485,23.154 C161.485,22.776 161.569,22.314 161.653,21.936 L164.383,9.714 Z M178.873,30 L184.207,30 L190.381,1.986 L185.047,1.986 L178.873,30 Z M190.255,35.502 C193.741,33.822 196.429,30.294 196.429,27.102 C196.429,24.834 194.875,23.658 193.153,23.658 C191.263,23.658 189.457,25.296 189.457,27.27 C189.457,29.076 190.675,30 192.019,30 L192.481,30 C191.809,31.47 189.877,32.856 188.365,33.528 L190.255,35.502 Z M211.003,30 L216.337,30 L222.511,1.986 L217.177,1.986 L211.003,30 Z M226.795,4.38 C226.795,5.85 228.013,7.11 229.693,7.11 C231.289,7.11 233.263,5.766 233.263,3.456 C233.263,1.986 232.045,0.726 230.365,0.726 C228.769,0.726 226.795,2.028 226.795,4.38 Z M221.629,30 L226.963,30 L231.457,9.714 L226.123,9.714 L221.629,30 Z M234.355,26.094 C234.355,29.118 236.791,30.504 240.403,30.504 C241.705,30.504 242.965,30.168 243.763,29.622 L243.553,25.338 C243.301,25.548 242.629,25.758 242.083,25.758 C240.739,25.758 240.109,25.086 240.109,23.994 C240.109,23.742 240.151,23.406 240.193,23.154 L242.125,14.334 L246.241,14.334 L247.333,9.714 L243.217,9.714 L244.435,4.17 L239.059,4.17 L237.841,9.714 L234.481,9.714 L233.431,14.334 L236.791,14.334 L234.523,24.708 C234.397,25.212 234.355,25.8 234.355,26.094 Z M248.551,26.094 C248.551,29.118 250.987,30.504 254.599,30.504 C255.901,30.504 257.161,30.168 257.959,29.622 L257.749,25.338 C257.497,25.548 256.825,25.758 256.279,25.758 C254.935,25.758 254.305,25.086 254.305,23.994 C254.305,23.742 254.347,23.406 254.389,23.154 L256.321,14.334 L260.437,14.334 L261.529,9.714 L257.413,9.714 L258.631,4.17 L253.255,4.17 L252.037,9.714 L248.677,9.714 L247.627,14.334 L250.987,14.334 L248.719,24.708 C248.593,25.212 248.551,25.8 248.551,26.094 Z M260.647,30 L265.981,30 L272.155,1.986 L266.821,1.986 L260.647,30 Z M272.071,21.39 C272.071,27.06 276.187,30.504 282.571,30.504 C285.091,30.504 287.779,29.748 289.753,28.404 L288.073,24.75 C286.813,25.716 284.713,26.262 282.949,26.262 C279.211,26.262 277.405,23.784 277.405,22.062 L277.405,21.558 L292.483,21.558 C292.693,20.886 292.903,19.458 292.903,18.282 C292.903,12.612 288.955,9.21 283.789,9.21 C277.027,9.21 272.071,14.796 272.071,21.39 Z M288.115,17.946 L277.951,17.946 C278.413,15.72 280.597,13.452 283.453,13.452 C286.687,13.452 288.115,15.51 288.115,17.526 L288.115,17.946 Z M323.143,12.402 C321.799,10.386 319.363,9.21 316.675,9.21 C309.745,9.21 305.965,15.972 305.965,22.104 C305.965,27.48 309.073,30.504 313.693,30.504 C316.129,30.504 318.061,29.496 319.783,27.48 L319.195,30 L324.571,30 L330.787,1.986 L325.411,1.986 L323.143,12.402 Z M311.551,21.012 C311.551,17.274 314.029,13.956 317.515,13.956 C319.657,13.956 321.379,14.964 322.261,16.308 L320.707,23.364 C319.615,24.75 317.935,25.758 316.045,25.758 C313.483,25.758 311.551,23.91 311.551,21.012 Z M330.619,21.306 C330.619,26.598 334.189,30.504 340.657,30.504 C347.545,30.504 352.417,24.75 352.417,18.45 C352.417,13.158 348.805,9.21 342.337,9.21 C335.491,9.21 330.619,14.964 330.619,21.306 Z M346.873,18.702 C346.873,22.356 344.437,25.758 340.867,25.758 C337.885,25.758 336.121,23.952 336.121,21.012 C336.121,17.4 338.557,13.956 342.169,13.956 C345.109,13.956 346.873,15.762 346.873,18.702 Z M354.769,21.264 C354.769,26.808 358.675,30.504 364.723,30.504 C368.293,30.504 370.897,28.908 372.409,27.312 L369.511,23.742 C368.503,24.918 366.991,25.758 365.269,25.758 C362.455,25.758 360.187,24.078 360.187,21.012 C360.187,17.19 362.749,13.956 366.571,13.956 C368.419,13.956 369.973,14.838 370.813,16.266 L374.803,13.2 C373.417,10.89 370.729,9.21 366.571,9.21 C359.893,9.21 354.769,14.586 354.769,21.264 Z M384.757,9.714 L379.381,9.714 L376.315,23.658 C376.231,24.036 376.105,24.96 376.105,25.296 C376.105,28.446 378.541,30.504 382.447,30.504 C385.429,30.504 387.613,28.866 389.209,27.354 L388.621,30 L393.955,30 L398.449,9.714 L393.115,9.714 L390.091,23.364 C388.915,24.498 387.151,25.758 385.261,25.758 C383.371,25.758 381.859,25.002 381.859,23.154 C381.859,22.776 381.943,22.314 382.027,21.936 L384.757,9.714 Z M424.405,30 L429.781,30 L432.847,16.056 C432.931,15.72 433.057,14.922 433.057,14.376 C433.057,11.058 430.327,9.21 427.261,9.21 C424.153,9.21 421.843,10.974 420.247,12.948 L420.247,12.864 C420.247,12.108 418.651,9.21 414.661,9.21 C411.679,9.21 409.621,11.142 408.487,12.36 L409.075,9.714 L403.741,9.714 L399.247,30 L404.581,30 L407.605,16.308 C408.613,15.174 410.167,13.956 411.763,13.956 C413.653,13.956 414.703,14.964 414.745,16.266 C414.745,16.812 414.619,17.316 414.535,17.736 L411.805,30 L417.181,30 L420.163,16.308 C421.213,15.132 422.767,13.956 424.405,13.956 C425.959,13.956 427.303,14.838 427.303,16.392 C427.303,16.896 427.177,17.484 427.135,17.736 L424.405,30 Z M435.829,21.39 C435.829,27.06 439.945,30.504 446.329,30.504 C448.849,30.504 451.537,29.748 453.511,28.404 L451.831,24.75 C450.571,25.716 448.471,26.262 446.707,26.262 C442.969,26.262 441.163,23.784 441.163,22.062 L441.163,21.558 L456.241,21.558 C456.451,20.886 456.661,19.458 456.661,18.282 C456.661,12.612 452.713,9.21 447.547,9.21 C440.785,9.21 435.829,14.796 435.829,21.39 Z M451.873,17.946 L441.709,17.946 C442.171,15.72 444.355,13.452 447.211,13.452 C450.445,13.452 451.873,15.51 451.873,17.526 L451.873,17.946 Z M471.949,30 L477.283,30 L480.391,16.056 C480.475,15.636 480.601,14.754 480.601,14.376 C480.601,11.268 478.165,9.21 474.259,9.21 C471.277,9.21 469.093,10.806 467.497,12.36 L468.085,9.714 L462.751,9.714 L458.257,30 L463.591,30 L466.615,16.308 C467.791,15.174 469.555,13.956 471.739,13.956 C473.335,13.956 474.847,14.67 474.847,16.56 C474.847,16.98 474.721,17.526 474.637,17.904 L471.949,30 Z M484.675,26.094 C484.675,29.118 487.111,30.504 490.723,30.504 C492.025,30.504 493.285,30.168 494.083,29.622 L493.873,25.338 C493.621,25.548 492.949,25.758 492.403,25.758 C491.059,25.758 490.429,25.086 490.429,23.994 C490.429,23.742 490.471,23.406 490.513,23.154 L492.445,14.334 L496.561,14.334 L497.653,9.714 L493.537,9.714 L494.755,4.17 L489.379,4.17 L488.161,9.714 L484.801,9.714 L483.751,14.334 L487.111,14.334 L484.843,24.708 C484.717,25.212 484.675,25.8 484.675,26.094 Z M514.663,12.402 C513.319,10.386 510.883,9.21 508.195,9.21 C501.265,9.21 497.485,15.972 497.485,22.104 C497.485,27.48 500.593,30.504 505.213,30.504 C507.649,30.504 509.581,29.496 511.303,27.48 L510.715,30 L516.091,30 L520.585,9.714 L515.209,9.714 L514.663,12.402 Z M503.071,21.012 C503.071,17.274 505.549,13.956 509.035,13.956 C511.177,13.956 512.899,14.964 513.781,16.308 L512.227,23.364 C511.135,24.75 509.455,25.758 507.565,25.758 C505.003,25.758 503.071,23.91 503.071,21.012 Z M521.383,30 L526.717,30 L529.615,16.728 C530.833,15.384 532.723,14.292 534.655,14.292 C535.537,14.292 536.293,14.46 536.629,14.544 L537.763,9.252 C534.571,9.252 532.387,10.47 530.581,12.402 L531.211,9.714 L525.877,9.714 L521.383,30 Z M535.873,33.108 L534.109,37.728 C535.075,38.064 536.335,38.232 537.511,38.232 C540.871,38.232 543.139,36.93 545.365,33.318 L560.149,9.714 L554.269,9.714 L545.785,23.826 L543.643,9.714 L538.099,9.714 L541.711,30.126 L540.451,32.016 C539.737,33.066 539.023,33.444 537.931,33.444 C537.175,33.444 536.335,33.318 535.873,33.108 Z M555.739,27.354 C555.739,29.076 557.125,30.504 558.847,30.504 C560.863,30.504 562.543,28.824 562.543,26.808 C562.543,25.086 561.199,23.658 559.477,23.658 C557.461,23.658 555.739,25.338 555.739,27.354 Z M566.491,27.354 C566.491,29.076 567.877,30.504 569.599,30.504 C571.615,30.504 573.295,28.824 573.295,26.808 C573.295,25.086 571.951,23.658 570.229,23.658 C568.213,23.658 566.491,25.338 566.491,27.354 Z M577.243,27.354 C577.243,29.076 578.629,30.504 580.351,30.504 C582.367,30.504 584.047,28.824 584.047,26.808 C584.047,25.086 582.703,23.658 580.981,23.658 C578.965,23.658 577.243,25.338 577.243,27.354 Z M38.194,76.85 C40.462,79.244 44.074,80.504 47.77,80.504 C53.314,80.504 56.548,77.27 56.548,73.406 C56.548,69.71 52.726,68.45 49.744,67.526 C47.77,66.854 46.258,66.266 46.258,65.258 C46.258,64.166 47.308,63.284 49.198,63.284 C51.676,63.284 54.196,64.628 55.204,65.888 L57.892,62.528 C55.96,60.512 52.726,59.21 49.282,59.21 C43.864,59.21 40.924,62.528 40.924,66.056 C40.924,69.5 44.578,70.802 47.476,71.768 C49.492,72.44 51.214,73.07 51.214,74.288 C51.214,75.464 50.08,76.43 48.274,76.43 C45.334,76.43 42.352,74.75 41.134,73.322 L38.194,76.85 Z M72.718,80 L78.052,80 L81.118,66.056 C81.202,65.636 81.328,64.796 81.328,64.376 C81.328,61.268 78.892,59.21 74.986,59.21 C72.004,59.21 69.82,60.806 68.224,62.36 L70.492,51.986 L65.158,51.986 L58.984,80 L64.318,80 L67.342,66.35 C68.518,65.174 70.282,63.956 72.088,63.956 C74.062,63.956 75.574,64.67 75.574,66.56 C75.574,66.854 75.448,67.484 75.364,67.82 L72.718,80 Z M101.236,62.402 C99.892,60.386 97.456,59.21 94.768,59.21 C87.838,59.21 84.058,65.972 84.058,72.104 C84.058,77.48 87.166,80.504 91.786,80.504 C94.222,80.504 96.154,79.496 97.876,77.48 L97.288,80 L102.664,80 L107.158,59.714 L101.782,59.714 L101.236,62.402 Z M89.644,71.012 C89.644,67.274 92.122,63.956 95.608,63.956 C97.75,63.956 99.472,64.964 100.354,66.308 L98.8,73.364 C97.708,74.75 96.028,75.758 94.138,75.758 C91.576,75.758 89.644,73.91 89.644,71.012 Z M107.956,80 L113.29,80 L116.188,66.728 C117.406,65.384 119.296,64.292 121.228,64.292 C122.11,64.292 122.866,64.46 123.202,64.544 L124.336,59.252 C121.144,59.252 118.96,60.47 117.154,62.402 L117.784,59.714 L112.45,59.714 L107.956,80 Z M128.998,77.312 C130.342,79.328 132.694,80.504 135.466,80.504 C142.354,80.504 146.134,73.7 146.134,67.61 C146.134,62.234 142.984,59.21 138.448,59.21 C136.012,59.21 134.038,60.218 132.316,62.234 L132.904,59.714 L127.57,59.714 L121.354,87.728 L126.688,87.728 L128.998,77.312 Z M140.548,68.702 C140.548,72.44 138.112,75.758 134.584,75.758 C132.442,75.758 130.72,74.792 129.838,73.448 L131.392,66.392 C132.526,65.006 134.164,63.956 136.054,63.956 C138.616,63.956 140.548,65.804 140.548,68.702 Z M148.36,71.39 C148.36,77.06 152.476,80.504 158.86,80.504 C161.38,80.504 164.068,79.748 166.042,78.404 L164.362,74.75 C163.102,75.716 161.002,76.262 159.238,76.262 C155.5,76.262 153.694,73.784 153.694,72.062 L153.694,71.558 L168.772,71.558 C168.982,70.886 169.192,69.458 169.192,68.282 C169.192,62.612 165.244,59.21 160.078,59.21 C153.316,59.21 148.36,64.796 148.36,71.39 Z M164.404,67.946 L154.24,67.946 C154.702,65.72 156.886,63.452 159.742,63.452 C162.976,63.452 164.404,65.51 164.404,67.526 L164.404,67.946 Z M184.48,80 L189.814,80 L192.922,66.056 C193.006,65.636 193.132,64.754 193.132,64.376 C193.132,61.268 190.696,59.21 186.79,59.21 C183.808,59.21 181.624,60.806 180.028,62.36 L180.616,59.714 L175.282,59.714 L170.788,80 L176.122,80 L179.146,66.308 C180.322,65.174 182.086,63.956 184.27,63.956 C185.866,63.956 187.378,64.67 187.378,66.56 C187.378,66.98 187.252,67.526 187.168,67.904 L184.48,80 Z M194.35,76.85 C196.618,79.244 200.23,80.504 203.926,80.504 C209.47,80.504 212.704,77.27 212.704,73.406 C212.704,69.71 208.882,68.45 205.9,67.526 C203.926,66.854 202.414,66.266 202.414,65.258 C202.414,64.166 203.464,63.284 205.354,63.284 C207.832,63.284 210.352,64.628 211.36,65.888 L214.048,62.528 C212.116,60.512 208.882,59.21 205.438,59.21 C200.02,59.21 197.08,62.528 197.08,66.056 C197.08,69.5 200.734,70.802 203.632,71.768 C205.648,72.44 207.37,73.07 207.37,74.288 C207.37,75.464 206.236,76.43 204.43,76.43 C201.49,76.43 198.508,74.75 197.29,73.322 L194.35,76.85 Z M227.992,76.094 C227.992,79.118 230.428,80.504 234.04,80.504 C235.342,80.504 236.602,80.168 237.4,79.622 L237.19,75.338 C236.938,75.548 236.266,75.758 235.72,75.758 C234.376,75.758 233.746,75.086 233.746,73.994 C233.746,73.742 233.788,73.406 233.83,73.154 L235.762,64.334 L239.878,64.334 L240.97,59.714 L236.854,59.714 L238.072,54.17 L232.696,54.17 L231.478,59.714 L228.118,59.714 L227.068,64.334 L230.428,64.334 L228.16,74.708 C228.034,75.212 227.992,75.8 227.992,76.094 Z M253.822,80 L259.156,80 L262.222,66.056 C262.306,65.636 262.432,64.796 262.432,64.376 C262.432,61.268 259.996,59.21 256.09,59.21 C253.108,59.21 250.924,60.806 249.328,62.36 L251.596,51.986 L246.262,51.986 L240.088,80 L245.422,80 L248.446,66.35 C249.622,65.174 251.386,63.956 253.192,63.956 C255.166,63.956 256.678,64.67 256.678,66.56 C256.678,66.854 256.552,67.484 256.468,67.82 L253.822,80 Z M265.246,71.39 C265.246,77.06 269.362,80.504 275.746,80.504 C278.266,80.504 280.954,79.748 282.928,78.404 L281.248,74.75 C279.988,75.716 277.888,76.262 276.124,76.262 C272.386,76.262 270.58,73.784 270.58,72.062 L270.58,71.558 L285.658,71.558 C285.868,70.886 286.078,69.458 286.078,68.282 C286.078,62.612 282.13,59.21 276.964,59.21 C270.202,59.21 265.246,64.796 265.246,71.39 Z M281.29,67.946 L271.126,67.946 C271.588,65.72 273.772,63.452 276.628,63.452 C279.862,63.452 281.29,65.51 281.29,67.526 L281.29,67.946 Z M303.592,54.38 C303.592,55.85 304.81,57.11 306.49,57.11 C308.086,57.11 310.06,55.766 310.06,53.456 C310.06,51.986 308.842,50.726 307.162,50.726 C305.566,50.726 303.592,52.028 303.592,54.38 Z M298.426,80 L303.76,80 L308.254,59.714 L302.92,59.714 L298.426,80 Z M334.21,80 L339.586,80 L342.652,66.056 C342.736,65.72 342.862,64.922 342.862,64.376 C342.862,61.058 340.132,59.21 337.066,59.21 C333.958,59.21 331.648,60.974 330.052,62.948 L330.052,62.864 C330.052,62.108 328.456,59.21 324.466,59.21 C321.484,59.21 319.426,61.142 318.292,62.36 L318.88,59.714 L313.546,59.714 L309.052,80 L314.386,80 L317.41,66.308 C318.418,65.174 319.972,63.956 321.568,63.956 C323.458,63.956 324.508,64.964 324.55,66.266 C324.55,66.812 324.424,67.316 324.34,67.736 L321.61,80 L326.986,80 L329.968,66.308 C331.018,65.132 332.572,63.956 334.21,63.956 C335.764,63.956 337.108,64.838 337.108,66.392 C337.108,66.896 336.982,67.484 336.94,67.736 L334.21,80 Z M362.728,62.402 C361.384,60.386 358.948,59.21 356.26,59.21 C349.33,59.21 345.55,65.972 345.55,72.104 C345.55,77.48 348.658,80.504 353.278,80.504 C355.714,80.504 357.646,79.496 359.368,77.48 L358.78,80 L364.156,80 L368.65,59.714 L363.274,59.714 L362.728,62.402 Z M351.136,71.012 C351.136,67.274 353.614,63.956 357.1,63.956 C359.242,63.956 360.964,64.964 361.846,66.308 L360.292,73.364 C359.2,74.75 357.52,75.758 355.63,75.758 C353.068,75.758 351.136,73.91 351.136,71.012 Z M368.146,84.704 C370.582,87.308 373.984,88.232 377.974,88.232 C382.342,88.232 387.34,86.3 389.02,78.614 L393.22,59.714 L387.844,59.714 L387.256,62.402 C385.786,60.428 383.14,59.21 380.704,59.21 C374.11,59.21 370.204,65.426 370.204,71.6 C370.204,77.48 373.774,79.832 377.848,79.832 C380.326,79.832 382.51,78.656 384.064,76.766 L383.644,78.614 C382.72,82.73 380.368,83.864 377.89,83.864 C375.244,83.864 372.598,82.94 371.296,81.134 L368.146,84.704 Z M384.946,72.776 C383.854,74.078 382.132,75.086 380.368,75.086 C377.596,75.086 375.748,73.322 375.748,70.55 C375.748,66.896 378.1,63.956 381.418,63.956 C383.56,63.956 385.408,64.88 386.374,66.476 L384.946,72.776 Z M399.184,54.38 C399.184,55.85 400.402,57.11 402.082,57.11 C403.678,57.11 405.652,55.766 405.652,53.456 C405.652,51.986 404.434,50.726 402.754,50.726 C401.158,50.726 399.184,52.028 399.184,54.38 Z M394.018,80 L399.352,80 L403.846,59.714 L398.512,59.714 L394.018,80 Z M418.336,80 L423.67,80 L426.778,66.056 C426.862,65.636 426.988,64.754 426.988,64.376 C426.988,61.268 424.552,59.21 420.646,59.21 C417.664,59.21 415.48,60.806 413.884,62.36 L414.472,59.714 L409.138,59.714 L404.644,80 L409.978,80 L413.002,66.308 C414.178,65.174 415.942,63.956 418.126,63.956 C419.722,63.956 421.234,64.67 421.234,66.56 C421.234,66.98 421.108,67.526 421.024,67.904 L418.336,80 Z M446.854,62.402 C445.51,60.386 443.074,59.21 440.386,59.21 C433.456,59.21 429.676,65.972 429.676,72.104 C429.676,77.48 432.784,80.504 437.404,80.504 C439.84,80.504 441.772,79.496 443.494,77.48 L442.906,80 L448.282,80 L452.776,59.714 L447.4,59.714 L446.854,62.402 Z M435.262,71.012 C435.262,67.274 437.74,63.956 441.226,63.956 C443.368,63.956 445.09,64.964 445.972,66.308 L444.418,73.364 C443.326,74.75 441.646,75.758 439.756,75.758 C437.194,75.758 435.262,73.91 435.262,71.012 Z M455.674,76.094 C455.674,79.118 458.11,80.504 461.722,80.504 C463.024,80.504 464.284,80.168 465.082,79.622 L464.872,75.338 C464.62,75.548 463.948,75.758 463.402,75.758 C462.058,75.758 461.428,75.086 461.428,73.994 C461.428,73.742 461.47,73.406 461.512,73.154 L463.444,64.334 L467.56,64.334 L468.652,59.714 L464.536,59.714 L465.754,54.17 L460.378,54.17 L459.16,59.714 L455.8,59.714 L454.75,64.334 L458.11,64.334 L455.842,74.708 C455.716,75.212 455.674,75.8 455.674,76.094 Z M472.936,54.38 C472.936,55.85 474.154,57.11 475.834,57.11 C477.43,57.11 479.404,55.766 479.404,53.456 C479.404,51.986 478.186,50.726 476.506,50.726 C474.91,50.726 472.936,52.028 472.936,54.38 Z M467.77,80 L473.104,80 L477.598,59.714 L472.264,59.714 L467.77,80 Z M479.152,71.306 C479.152,76.598 482.722,80.504 489.19,80.504 C496.078,80.504 500.95,74.75 500.95,68.45 C500.95,63.158 497.338,59.21 490.87,59.21 C484.024,59.21 479.152,64.964 479.152,71.306 Z M495.406,68.702 C495.406,72.356 492.97,75.758 489.4,75.758 C486.418,75.758 484.654,73.952 484.654,71.012 C484.654,67.4 487.09,63.956 490.702,63.956 C493.642,63.956 495.406,65.762 495.406,68.702 Z M516.196,80 L521.53,80 L524.638,66.056 C524.722,65.636 524.848,64.754 524.848,64.376 C524.848,61.268 522.412,59.21 518.506,59.21 C515.524,59.21 513.34,60.806 511.744,62.36 L512.332,59.714 L506.998,59.714 L502.504,80 L507.838,80 L510.862,66.308 C512.038,65.174 513.802,63.956 515.986,63.956 C517.582,63.956 519.094,64.67 519.094,66.56 C519.094,66.98 518.968,67.526 518.884,67.904 L516.196,80 Z M532.198,63.41 C535.684,61.688 538.372,58.202 538.372,55.01 C538.372,52.742 536.776,51.566 535.096,51.566 C533.206,51.566 531.358,53.204 531.358,55.178 C531.358,56.984 532.576,57.908 533.962,57.908 L534.382,57.908 C533.71,59.378 531.778,60.764 530.266,61.436 L532.198,63.41 Z M540.724,63.41 C544.21,61.688 546.898,58.202 546.898,55.01 C546.898,52.742 545.344,51.566 543.622,51.566 C541.732,51.566 539.926,53.204 539.926,55.178 C539.926,56.984 541.102,57.908 542.488,57.908 L542.95,57.908 C542.278,59.378 540.346,60.764 538.834,61.436 L540.724,63.41 Z" id="“Beautiful,-little-d"></path>
                            </g>
                        </g>
                    </g>
                </g>
                <path d="M480.832,169 L482.104,169 L482.104,152.992 L480.832,152.992 L480.832,159.28 C479.896,157.96 478.456,157.12 476.8,157.12 C473.728,157.12 471.616,159.544 471.616,163.216 C471.616,166.936 473.728,169.288 476.8,169.288 C478.528,169.288 480.016,168.352 480.832,167.152 L480.832,169 Z M480.832,166.096 C480.16,167.2 478.648,168.16 477.016,168.16 C474.448,168.16 472.96,166.024 472.96,163.216 C472.96,160.408 474.448,158.248 477.016,158.248 C478.648,158.248 480.16,159.232 480.832,160.36 L480.832,166.096 Z M485.32,163.192 C485.32,166.768 487.744,169.288 491.128,169.288 C493.048,169.288 494.512,168.616 495.664,167.416 L495.016,166.6 C494.032,167.656 492.688,168.208 491.224,168.208 C488.488,168.208 486.808,166.12 486.688,163.6 L496.384,163.6 L496.384,163.264 C496.384,159.928 494.44,157.12 490.912,157.12 C487.696,157.12 485.32,159.832 485.32,163.192 Z M490.888,158.2 C493.792,158.2 495.088,160.648 495.112,162.616 L486.688,162.616 C486.784,160.6 488.152,158.2 490.888,158.2 Z M510.784,169 L512.488,169 L519.04,152.992 L517.456,152.992 L511.624,167.464 L505.816,152.992 L504.232,152.992 L510.784,169 Z M524.8,169.288 C528.232,169.288 530.392,166.576 530.392,163.192 C530.392,159.808 528.232,157.12 524.8,157.12 C521.416,157.12 519.232,159.808 519.232,163.192 C519.232,166.576 521.416,169.288 524.8,169.288 Z M524.8,168.16 C522.112,168.16 520.576,165.784 520.576,163.192 C520.576,160.624 522.112,158.248 524.8,158.248 C527.536,158.248 529.048,160.624 529.048,163.192 C529.048,165.784 527.536,168.16 524.8,168.16 Z M533.608,169 L534.856,169 L534.856,152.992 L533.608,152.992 L533.608,169 Z M546.784,169 L548.464,169 L543.088,162.64 L548.488,157.408 L546.832,157.408 L539.992,164.032 L539.992,152.992 L538.744,152.992 L538.744,169 L539.992,169 L539.992,165.52 L542.152,163.48 L546.784,169 Z M549.784,167.464 C550.936,168.736 552.376,169.288 554.248,169.288 C557.152,169.288 558.592,167.752 558.592,165.88 C558.592,163.408 556.36,162.856 554.368,162.352 C552.76,161.944 551.272,161.584 551.272,160.264 C551.272,159.064 552.376,158.176 554.176,158.176 C555.712,158.176 556.96,158.8 557.632,159.712 L558.328,158.824 C557.488,157.888 556.168,157.12 554.176,157.12 C551.56,157.12 550.048,158.56 550.048,160.336 C550.048,162.592 552.184,163.096 554.128,163.576 C555.784,164.008 557.368,164.44 557.368,165.928 C557.368,167.272 556.216,168.232 554.272,168.232 C552.64,168.232 551.272,167.464 550.528,166.528 L549.784,167.464 Z M569.848,169 L571.528,169 L566.152,162.64 L571.552,157.408 L569.896,157.408 L563.056,164.032 L563.056,152.992 L561.808,152.992 L561.808,169 L563.056,169 L563.056,165.52 L565.216,163.48 L569.848,169 Z M573.928,169 L575.176,169 L575.176,160.552 C575.704,159.544 577.288,158.488 578.464,158.488 C578.704,158.488 578.872,158.488 579.088,158.536 L579.088,157.168 C577.48,157.168 576.16,158.104 575.176,159.4 L575.176,157.408 L573.928,157.408 L573.928,169 Z M588.904,169 L590.152,169 L590.152,160.84 C590.152,158.248 588.28,157.12 585.928,157.12 C584.008,157.12 582.664,157.768 581.464,159.064 L582.16,159.928 C583.216,158.728 584.344,158.224 585.784,158.224 C587.512,158.224 588.904,159.16 588.904,160.888 L588.904,163.24 C587.896,162.112 586.576,161.584 584.968,161.584 C582.952,161.584 580.912,162.904 580.912,165.424 C580.912,167.92 582.976,169.288 584.968,169.288 C586.576,169.288 587.872,168.76 588.904,167.632 L588.904,169 Z M588.904,166.72 C588.088,167.776 586.792,168.304 585.4,168.304 C583.48,168.304 582.232,167.08 582.232,165.448 C582.232,163.792 583.48,162.568 585.4,162.568 C586.792,162.568 588.088,163.12 588.904,164.176 L588.904,166.72 Z M601.864,169 L603.112,169 L603.112,160.888 C603.112,158.272 601.816,157.12 599.464,157.12 C597.784,157.12 596.128,158.152 595.288,159.16 L595.288,157.408 L594.04,157.408 L594.04,169 L595.288,169 L595.288,160.24 C596.032,159.184 597.568,158.248 599.056,158.248 C600.736,158.248 601.864,158.92 601.864,161.152 L601.864,169 Z M609.52,169.288 C610.48,169.288 611.032,169 611.488,168.568 L611.008,167.608 C610.744,167.896 610.264,168.16 609.712,168.16 C608.896,168.16 608.512,167.512 608.512,166.576 L608.512,158.512 L610.864,158.512 L610.864,157.408 L608.512,157.408 L608.512,154.24 L607.24,154.24 L607.24,157.408 L605.32,157.408 L605.32,158.512 L607.24,158.512 L607.24,166.768 C607.24,168.352 607.984,169.288 609.52,169.288 Z" id="de-Volkskrant"></path>
            </g>
        </g>
    </g>
</svg>