<?xml version="1.0" encoding="UTF-8" standalone="no"?>
<svg width="277px" height="22px" viewBox="0 0 277 22" version="1.1" xmlns="http://www.w3.org/2000/svg" xmlns:xlink="http://www.w3.org/1999/xlink">
    <!-- Generator: Sketch 41.2 (35397) - http://www.bohemiancoding.com/sketch -->
    <title>a film by Ingrid Kam</title>
    <desc>Created with Sketch.</desc>
    <defs></defs>
    <g id="Page-1" stroke="none" stroke-width="1" fill="none" fill-rule="evenodd">
        <g id="Desktop-HD" transform="translate(-575.000000, -158.000000)" fill="#FFFFFF">
            <path d="M582.916,175 L585.964,175 L585.964,167.512 C585.964,164.176 583.54,163.12 580.9,163.12 C579.076,163.12 577.252,163.696 575.836,164.944 L576.988,166.984 C577.972,166.072 579.124,165.616 580.372,165.616 C581.908,165.616 582.916,166.384 582.916,167.56 L582.916,169.168 C582.148,168.232 580.78,167.752 579.244,167.752 C577.396,167.752 575.212,168.736 575.212,171.448 C575.212,174.04 577.396,175.288 579.244,175.288 C580.756,175.288 582.124,174.736 582.916,173.8 L582.916,175 Z M582.916,172.216 C582.412,172.888 581.452,173.224 580.468,173.224 C579.268,173.224 578.284,172.6 578.284,171.52 C578.284,170.392 579.268,169.768 580.468,169.768 C581.452,169.768 582.412,170.104 582.916,170.776 L582.916,172.216 Z M604.492,161.92 C605.5,161.92 606.316,161.104 606.316,160.096 C606.316,159.088 605.5,158.272 604.492,158.272 C603.508,158.272 602.668,159.088 602.668,160.096 C602.668,161.104 603.508,161.92 604.492,161.92 Z M595.804,175 L598.876,175 L598.876,166.072 L601.228,166.072 L601.228,163.408 L598.876,163.408 L598.876,162.784 C598.876,161.728 599.452,161.152 600.316,161.152 C600.724,161.152 601.06,161.272 601.3,161.44 L601.924,159.232 C601.372,158.944 600.58,158.752 599.716,158.752 C597.436,158.752 595.804,160.264 595.804,162.784 L595.804,163.408 L593.884,163.408 L593.884,166.072 L595.804,166.072 L595.804,175 Z M602.98,175 L606.028,175 L606.028,163.408 L602.98,163.408 L602.98,175 Z M609.052,175 L612.1,175 L612.1,158.992 L609.052,158.992 L609.052,175 Z M629.5,175 L632.572,175 L632.572,166.624 C632.572,164.248 631.3,163.12 629.164,163.12 C627.388,163.12 625.852,164.176 625.18,165.232 C624.748,163.912 623.668,163.12 621.964,163.12 C620.188,163.12 618.652,164.224 618.172,164.92 L618.172,163.408 L615.124,163.408 L615.124,175 L618.172,175 L618.172,167.2 C618.628,166.552 619.516,165.832 620.572,165.832 C621.82,165.832 622.3,166.6 622.3,167.68 L622.3,175 L625.372,175 L625.372,167.176 C625.804,166.552 626.692,165.832 627.772,165.832 C629.02,165.832 629.5,166.6 629.5,167.68 L629.5,175 Z M641.716,175 L644.764,175 L644.764,173.512 C645.676,174.664 646.948,175.288 648.34,175.288 C651.268,175.288 653.476,173.08 653.476,169.216 C653.476,165.424 651.292,163.12 648.34,163.12 C646.972,163.12 645.676,163.72 644.764,164.896 L644.764,158.992 L641.716,158.992 L641.716,175 Z M644.764,171.28 L644.764,167.176 C645.268,166.408 646.396,165.832 647.38,165.832 C649.156,165.832 650.332,167.2 650.332,169.216 C650.332,171.232 649.156,172.576 647.38,172.576 C646.396,172.576 645.268,172.024 644.764,171.28 Z M655.828,176.8 L655.372,179.536 C655.756,179.632 656.524,179.704 656.884,179.704 C658.876,179.656 660.412,179.08 661.276,176.896 L666.724,163.408 L663.436,163.408 L660.412,171.472 L657.388,163.408 L654.124,163.408 L658.828,175.168 L658.396,176.152 C658.108,176.776 657.58,176.992 656.788,176.992 C656.5,176.992 656.092,176.92 655.828,176.8 Z M674.308,175 L677.716,175 L677.716,158.992 L674.308,158.992 L674.308,175 Z M688.636,175 L691.684,175 L691.684,166.816 C691.684,164.56 690.46,163.12 687.916,163.12 C686.02,163.12 684.604,164.032 683.86,164.92 L683.86,163.408 L680.812,163.408 L680.812,175 L683.86,175 L683.86,167.2 C684.364,166.504 685.3,165.832 686.5,165.832 C687.796,165.832 688.636,166.384 688.636,167.992 L688.636,175 Z M694.468,177.976 C695.932,179.248 697.468,179.704 699.46,179.704 C702.316,179.704 705.724,178.624 705.724,174.208 L705.724,163.408 L702.652,163.408 L702.652,164.896 C701.716,163.72 700.468,163.12 699.076,163.12 C696.148,163.12 693.964,165.232 693.964,169.024 C693.964,172.888 696.172,174.928 699.076,174.928 C700.492,174.928 701.74,174.256 702.652,173.104 L702.652,174.28 C702.652,176.56 700.924,177.208 699.46,177.208 C697.996,177.208 696.772,176.8 695.836,175.768 L694.468,177.976 Z M702.652,170.896 C702.148,171.64 701.044,172.216 700.036,172.216 C698.308,172.216 697.108,171.016 697.108,169.024 C697.108,167.032 698.308,165.832 700.036,165.832 C701.044,165.832 702.148,166.384 702.652,167.152 L702.652,170.896 Z M708.748,175 L711.796,175 L711.796,167.344 C712.3,166.6 713.644,166.024 714.652,166.024 C714.988,166.024 715.276,166.072 715.492,166.12 L715.492,163.144 C714.052,163.144 712.612,163.96 711.796,164.992 L711.796,163.408 L708.748,163.408 L708.748,175 Z M718.9,161.92 C719.908,161.92 720.724,161.104 720.724,160.096 C720.724,159.088 719.908,158.272 718.9,158.272 C717.916,158.272 717.076,159.088 717.076,160.096 C717.076,161.104 717.916,161.92 718.9,161.92 Z M717.388,175 L720.436,175 L720.436,163.408 L717.388,163.408 L717.388,175 Z M731.428,175 L734.5,175 L734.5,158.992 L731.428,158.992 L731.428,164.896 C730.516,163.72 729.22,163.12 727.852,163.12 C724.9,163.12 722.716,165.424 722.716,169.216 C722.716,173.08 724.924,175.288 727.852,175.288 C729.244,175.288 730.516,174.664 731.428,173.512 L731.428,175 Z M731.428,171.256 C730.924,172.024 729.82,172.576 728.788,172.576 C727.06,172.576 725.86,171.208 725.86,169.216 C725.86,167.2 727.06,165.832 728.788,165.832 C729.82,165.832 730.924,166.384 731.428,167.152 L731.428,171.256 Z M753.244,175 L757.444,175 L750.652,166.504 L757.012,158.992 L752.812,158.992 L747.148,166.144 L747.148,158.992 L743.74,158.992 L743.74,175 L747.148,175 L747.148,170.08 L748.396,168.592 L753.244,175 Z M765.556,175 L768.604,175 L768.604,167.512 C768.604,164.176 766.18,163.12 763.54,163.12 C761.716,163.12 759.892,163.696 758.476,164.944 L759.628,166.984 C760.612,166.072 761.764,165.616 763.012,165.616 C764.548,165.616 765.556,166.384 765.556,167.56 L765.556,169.168 C764.788,168.232 763.42,167.752 761.884,167.752 C760.036,167.752 757.852,168.736 757.852,171.448 C757.852,174.04 760.036,175.288 761.884,175.288 C763.396,175.288 764.764,174.736 765.556,173.8 L765.556,175 Z M765.556,172.216 C765.052,172.888 764.092,173.224 763.108,173.224 C761.908,173.224 760.924,172.6 760.924,171.52 C760.924,170.392 761.908,169.768 763.108,169.768 C764.092,169.768 765.052,170.104 765.556,170.776 L765.556,172.216 Z M786.004,175 L789.076,175 L789.076,166.624 C789.076,164.248 787.804,163.12 785.668,163.12 C783.892,163.12 782.356,164.176 781.684,165.232 C781.252,163.912 780.172,163.12 778.468,163.12 C776.692,163.12 775.156,164.224 774.676,164.92 L774.676,163.408 L771.628,163.408 L771.628,175 L774.676,175 L774.676,167.2 C775.132,166.552 776.02,165.832 777.076,165.832 C778.324,165.832 778.804,166.6 778.804,167.68 L778.804,175 L781.876,175 L781.876,167.176 C782.308,166.552 783.196,165.832 784.276,165.832 C785.524,165.832 786.004,166.6 786.004,167.68 L786.004,175 Z M791.332,169.192 C791.332,172.912 793.996,175.288 797.524,175.288 C799.324,175.288 801.148,174.736 802.3,173.68 L800.956,171.712 C800.212,172.432 798.94,172.864 797.86,172.864 C795.892,172.864 794.716,171.64 794.524,170.176 L803.14,170.176 L803.14,169.504 C803.14,165.712 800.788,163.12 797.332,163.12 C793.804,163.12 791.332,165.832 791.332,169.192 Z M797.332,165.544 C799.348,165.544 800.116,167.008 800.188,168.112 L794.476,168.112 C794.62,166.96 795.436,165.544 797.332,165.544 Z M805.348,175 L808.396,175 L808.396,167.344 C808.9,166.6 810.244,166.024 811.252,166.024 C811.588,166.024 811.876,166.072 812.092,166.12 L812.092,163.144 C810.652,163.144 809.212,163.96 808.396,164.992 L808.396,163.408 L805.348,163.408 L805.348,175 Z M813.988,175 L817.036,175 L817.036,158.992 L813.988,158.992 L813.988,175 Z M821.572,161.92 C822.58,161.92 823.396,161.104 823.396,160.096 C823.396,159.088 822.58,158.272 821.572,158.272 C820.588,158.272 819.748,159.088 819.748,160.096 C819.748,161.104 820.588,161.92 821.572,161.92 Z M820.06,175 L823.108,175 L823.108,163.408 L820.06,163.408 L820.06,175 Z M833.956,175 L837.004,175 L837.004,166.816 C837.004,164.56 835.78,163.12 833.236,163.12 C831.34,163.12 829.924,164.032 829.18,164.92 L829.18,163.408 L826.132,163.408 L826.132,175 L829.18,175 L829.18,167.2 C829.684,166.504 830.62,165.832 831.82,165.832 C833.116,165.832 833.956,166.384 833.956,167.992 L833.956,175 Z M839.788,177.976 C841.252,179.248 842.788,179.704 844.78,179.704 C847.636,179.704 851.044,178.624 851.044,174.208 L851.044,163.408 L847.972,163.408 L847.972,164.896 C847.036,163.72 845.788,163.12 844.396,163.12 C841.468,163.12 839.284,165.232 839.284,169.024 C839.284,172.888 841.492,174.928 844.396,174.928 C845.812,174.928 847.06,174.256 847.972,173.104 L847.972,174.28 C847.972,176.56 846.244,177.208 844.78,177.208 C843.316,177.208 842.092,176.8 841.156,175.768 L839.788,177.976 Z M847.972,170.896 C847.468,171.64 846.364,172.216 845.356,172.216 C843.628,172.216 842.428,171.016 842.428,169.024 C842.428,167.032 843.628,165.832 845.356,165.832 C846.364,165.832 847.468,166.384 847.972,167.152 L847.972,170.896 Z" id="a-film-by-Ingrid-Kam"></path>
        </g>
    </g>
</svg>