<?xml version="1.0" encoding="UTF-8" standalone="no"?>
<svg width="529px" height="170px" viewBox="0 0 529 170" version="1.1" xmlns="http://www.w3.org/2000/svg" xmlns:xlink="http://www.w3.org/1999/xlink">
    <!-- Generator: Sketch 41.2 (35397) - http://www.bohemiancoding.com/sketch -->
    <title>Group 2</title>
    <desc>Created with Sketch.</desc>
    <defs></defs>
    <g id="Page-1" stroke="none" stroke-width="1" fill="none" fill-rule="evenodd">
        <g id="Desktop-HD" transform="translate(-471.000000, -468.000000)" fill="#FFFFFF">
            <g id="Group-2" transform="translate(427.000000, 468.000000)">
                <path d="M441.832,169 L443.104,169 L443.104,152.992 L441.832,152.992 L441.832,159.28 C440.896,157.96 439.456,157.12 437.8,157.12 C434.728,157.12 432.616,159.544 432.616,163.216 C432.616,166.936 434.728,169.288 437.8,169.288 C439.528,169.288 441.016,168.352 441.832,167.152 L441.832,169 Z M441.832,166.096 C441.16,167.2 439.648,168.16 438.016,168.16 C435.448,168.16 433.96,166.024 433.96,163.216 C433.96,160.408 435.448,158.248 438.016,158.248 C439.648,158.248 441.16,159.232 441.832,160.36 L441.832,166.096 Z M446.32,163.192 C446.32,166.768 448.744,169.288 452.128,169.288 C454.048,169.288 455.512,168.616 456.664,167.416 L456.016,166.6 C455.032,167.656 453.688,168.208 452.224,168.208 C449.488,168.208 447.808,166.12 447.688,163.6 L457.384,163.6 L457.384,163.264 C457.384,159.928 455.44,157.12 451.912,157.12 C448.696,157.12 446.32,159.832 446.32,163.192 Z M451.888,158.2 C454.792,158.2 456.088,160.648 456.112,162.616 L447.688,162.616 C447.784,160.6 449.152,158.2 451.888,158.2 Z M471.784,169 L473.488,169 L480.04,152.992 L478.456,152.992 L472.624,167.464 L466.816,152.992 L465.232,152.992 L471.784,169 Z M485.8,169.288 C489.232,169.288 491.392,166.576 491.392,163.192 C491.392,159.808 489.232,157.12 485.8,157.12 C482.416,157.12 480.232,159.808 480.232,163.192 C480.232,166.576 482.416,169.288 485.8,169.288 Z M485.8,168.16 C483.112,168.16 481.576,165.784 481.576,163.192 C481.576,160.624 483.112,158.248 485.8,158.248 C488.536,158.248 490.048,160.624 490.048,163.192 C490.048,165.784 488.536,168.16 485.8,168.16 Z M494.608,169 L495.856,169 L495.856,152.992 L494.608,152.992 L494.608,169 Z M507.784,169 L509.464,169 L504.088,162.64 L509.488,157.408 L507.832,157.408 L500.992,164.032 L500.992,152.992 L499.744,152.992 L499.744,169 L500.992,169 L500.992,165.52 L503.152,163.48 L507.784,169 Z M510.784,167.464 C511.936,168.736 513.376,169.288 515.248,169.288 C518.152,169.288 519.592,167.752 519.592,165.88 C519.592,163.408 517.36,162.856 515.368,162.352 C513.76,161.944 512.272,161.584 512.272,160.264 C512.272,159.064 513.376,158.176 515.176,158.176 C516.712,158.176 517.96,158.8 518.632,159.712 L519.328,158.824 C518.488,157.888 517.168,157.12 515.176,157.12 C512.56,157.12 511.048,158.56 511.048,160.336 C511.048,162.592 513.184,163.096 515.128,163.576 C516.784,164.008 518.368,164.44 518.368,165.928 C518.368,167.272 517.216,168.232 515.272,168.232 C513.64,168.232 512.272,167.464 511.528,166.528 L510.784,167.464 Z M530.848,169 L532.528,169 L527.152,162.64 L532.552,157.408 L530.896,157.408 L524.056,164.032 L524.056,152.992 L522.808,152.992 L522.808,169 L524.056,169 L524.056,165.52 L526.216,163.48 L530.848,169 Z M534.928,169 L536.176,169 L536.176,160.552 C536.704,159.544 538.288,158.488 539.464,158.488 C539.704,158.488 539.872,158.488 540.088,158.536 L540.088,157.168 C538.48,157.168 537.16,158.104 536.176,159.4 L536.176,157.408 L534.928,157.408 L534.928,169 Z M549.904,169 L551.152,169 L551.152,160.84 C551.152,158.248 549.28,157.12 546.928,157.12 C545.008,157.12 543.664,157.768 542.464,159.064 L543.16,159.928 C544.216,158.728 545.344,158.224 546.784,158.224 C548.512,158.224 549.904,159.16 549.904,160.888 L549.904,163.24 C548.896,162.112 547.576,161.584 545.968,161.584 C543.952,161.584 541.912,162.904 541.912,165.424 C541.912,167.92 543.976,169.288 545.968,169.288 C547.576,169.288 548.872,168.76 549.904,167.632 L549.904,169 Z M549.904,166.72 C549.088,167.776 547.792,168.304 546.4,168.304 C544.48,168.304 543.232,167.08 543.232,165.448 C543.232,163.792 544.48,162.568 546.4,162.568 C547.792,162.568 549.088,163.12 549.904,164.176 L549.904,166.72 Z M562.864,169 L564.112,169 L564.112,160.888 C564.112,158.272 562.816,157.12 560.464,157.12 C558.784,157.12 557.128,158.152 556.288,159.16 L556.288,157.408 L555.04,157.408 L555.04,169 L556.288,169 L556.288,160.24 C557.032,159.184 558.568,158.248 560.056,158.248 C561.736,158.248 562.864,158.92 562.864,161.152 L562.864,169 Z M570.52,169.288 C571.48,169.288 572.032,169 572.488,168.568 L572.008,167.608 C571.744,167.896 571.264,168.16 570.712,168.16 C569.896,168.16 569.512,167.512 569.512,166.576 L569.512,158.512 L571.864,158.512 L571.864,157.408 L569.512,157.408 L569.512,154.24 L568.24,154.24 L568.24,157.408 L566.32,157.408 L566.32,158.512 L568.24,158.512 L568.24,166.768 C568.24,168.352 568.984,169.288 570.52,169.288 Z" id="de-Volkskrant"></path>
                <path d="M51.101,1.566 C47.615,3.246 44.927,6.732 44.927,9.966 C44.927,12.192 46.523,13.368 48.203,13.368 C50.093,13.368 51.941,11.772 51.941,9.756 C51.941,7.992 50.723,7.026 49.337,7.026 C49.253,7.026 49.001,7.026 48.917,7.068 C49.589,5.598 51.521,4.212 53.033,3.54 L51.101,1.566 Z M59.627,1.566 C56.141,3.246 53.495,6.732 53.495,9.966 C53.495,12.192 55.007,13.368 56.729,13.368 C58.619,13.368 60.467,11.772 60.467,9.756 C60.467,7.992 59.249,7.026 57.863,7.026 C57.737,7.026 57.527,7.026 57.443,7.068 C58.115,5.598 60.047,4.212 61.559,3.54 L59.627,1.566 Z M57.191,27.354 C57.191,29.076 58.577,30.504 60.299,30.504 C62.315,30.504 63.995,28.824 63.995,26.808 C63.995,25.086 62.651,23.658 60.929,23.658 C58.913,23.658 57.191,25.338 57.191,27.354 Z M67.943,27.354 C67.943,29.076 69.329,30.504 71.051,30.504 C73.067,30.504 74.747,28.824 74.747,26.808 C74.747,25.086 73.403,23.658 71.681,23.658 C69.665,23.658 67.943,25.338 67.943,27.354 Z M78.695,27.354 C78.695,29.076 80.081,30.504 81.803,30.504 C83.819,30.504 85.499,28.824 85.499,26.808 C85.499,25.086 84.155,23.658 82.433,23.658 C80.417,23.658 78.695,25.338 78.695,27.354 Z M114.647,30 L120.023,30 L123.089,16.056 C123.173,15.72 123.299,14.922 123.299,14.376 C123.299,11.058 120.569,9.21 117.503,9.21 C114.395,9.21 112.085,10.974 110.489,12.948 L110.489,12.864 C110.489,12.108 108.893,9.21 104.903,9.21 C101.921,9.21 99.863,11.142 98.729,12.36 L99.317,9.714 L93.983,9.714 L89.489,30 L94.823,30 L97.847,16.308 C98.855,15.174 100.409,13.956 102.005,13.956 C103.895,13.956 104.945,14.964 104.987,16.266 C104.987,16.812 104.861,17.316 104.777,17.736 L102.047,30 L107.423,30 L110.405,16.308 C111.455,15.132 113.009,13.956 114.647,13.956 C116.201,13.956 117.545,14.838 117.545,16.392 C117.545,16.896 117.419,17.484 117.377,17.736 L114.647,30 Z M135.101,9.714 L129.725,9.714 L126.659,23.658 C126.575,24.036 126.449,24.96 126.449,25.296 C126.449,28.446 128.885,30.504 132.791,30.504 C135.773,30.504 137.957,28.866 139.553,27.354 L138.965,30 L144.299,30 L148.793,9.714 L143.459,9.714 L140.435,23.364 C139.259,24.498 137.495,25.758 135.605,25.758 C133.715,25.758 132.203,25.002 132.203,23.154 C132.203,22.776 132.287,22.314 132.371,21.936 L135.101,9.714 Z M148.835,26.85 C151.103,29.244 154.715,30.504 158.411,30.504 C163.955,30.504 167.189,27.27 167.189,23.406 C167.189,19.71 163.367,18.45 160.385,17.526 C158.411,16.854 156.899,16.266 156.899,15.258 C156.899,14.166 157.949,13.284 159.839,13.284 C162.317,13.284 164.837,14.628 165.845,15.888 L168.533,12.528 C166.601,10.512 163.367,9.21 159.923,9.21 C154.505,9.21 151.565,12.528 151.565,16.056 C151.565,19.5 155.219,20.802 158.117,21.768 C160.133,22.44 161.855,23.07 161.855,24.288 C161.855,25.464 160.721,26.43 158.915,26.43 C155.975,26.43 152.993,24.75 151.775,23.322 L148.835,26.85 Z M171.725,26.094 C171.725,29.118 174.161,30.504 177.773,30.504 C179.075,30.504 180.335,30.168 181.133,29.622 L180.923,25.338 C180.671,25.548 179.999,25.758 179.453,25.758 C178.109,25.758 177.479,25.086 177.479,23.994 C177.479,23.742 177.521,23.406 177.563,23.154 L179.495,14.334 L183.611,14.334 L184.703,9.714 L180.587,9.714 L181.805,4.17 L176.429,4.17 L175.211,9.714 L171.851,9.714 L170.801,14.334 L174.161,14.334 L171.893,24.708 C171.767,25.212 171.725,25.8 171.725,26.094 Z M212.381,30 L218.051,30 L228.719,9.714 L223.007,9.714 L216.161,23.364 L214.775,9.714 L210.029,9.714 L202.553,23.364 L201.755,9.714 L196.421,9.714 L198.101,30 L203.813,30 L211.121,16.182 L212.381,30 Z M232.037,4.38 C232.037,5.85 233.255,7.11 234.935,7.11 C236.531,7.11 238.505,5.766 238.505,3.456 C238.505,1.986 237.287,0.726 235.607,0.726 C234.011,0.726 232.037,2.028 232.037,4.38 Z M226.871,30 L232.205,30 L236.699,9.714 L231.365,9.714 L226.871,30 Z M251.189,30 L256.523,30 L259.631,16.056 C259.715,15.636 259.841,14.754 259.841,14.376 C259.841,11.268 257.405,9.21 253.499,9.21 C250.517,9.21 248.333,10.806 246.737,12.36 L247.325,9.714 L241.991,9.714 L237.497,30 L242.831,30 L245.855,16.308 C247.031,15.174 248.795,13.956 250.979,13.956 C252.575,13.956 254.087,14.67 254.087,16.56 C254.087,16.98 253.961,17.526 253.877,17.904 L251.189,30 Z M290.459,12.402 C289.115,10.386 286.679,9.21 283.991,9.21 C277.061,9.21 273.281,15.972 273.281,22.104 C273.281,27.48 276.389,30.504 281.009,30.504 C283.445,30.504 285.377,29.496 287.099,27.48 L286.511,30 L291.887,30 L296.381,9.714 L291.005,9.714 L290.459,12.402 Z M278.867,21.012 C278.867,17.274 281.345,13.956 284.831,13.956 C286.973,13.956 288.695,14.964 289.577,16.308 L288.023,23.364 C286.931,24.75 285.251,25.758 283.361,25.758 C280.799,25.758 278.867,23.91 278.867,21.012 Z M308.729,21.264 C308.729,26.808 312.635,30.504 318.683,30.504 C322.253,30.504 324.857,28.908 326.369,27.312 L323.471,23.742 C322.463,24.918 320.951,25.758 319.229,25.758 C316.415,25.758 314.147,24.078 314.147,21.012 C314.147,17.19 316.709,13.956 320.531,13.956 C322.379,13.956 323.933,14.838 324.773,16.266 L328.763,13.2 C327.377,10.89 324.689,9.21 320.531,9.21 C313.853,9.21 308.729,14.586 308.729,21.264 Z M329.687,21.39 C329.687,27.06 333.803,30.504 340.187,30.504 C342.707,30.504 345.395,29.748 347.369,28.404 L345.689,24.75 C344.429,25.716 342.329,26.262 340.565,26.262 C336.827,26.262 335.021,23.784 335.021,22.062 L335.021,21.558 L350.099,21.558 C350.309,20.886 350.519,19.458 350.519,18.282 C350.519,12.612 346.571,9.21 341.405,9.21 C334.643,9.21 329.687,14.796 329.687,21.39 Z M345.731,17.946 L335.567,17.946 C336.029,15.72 338.213,13.452 341.069,13.452 C344.303,13.452 345.731,15.51 345.731,17.526 L345.731,17.946 Z M352.115,30 L357.449,30 L360.347,16.728 C361.565,15.384 363.455,14.292 365.387,14.292 C366.269,14.292 367.025,14.46 367.361,14.544 L368.495,9.252 C365.303,9.252 363.119,10.47 361.313,12.402 L361.943,9.714 L356.609,9.714 L352.115,30 Z M369.335,26.094 C369.335,29.118 371.771,30.504 375.383,30.504 C376.685,30.504 377.945,30.168 378.743,29.622 L378.533,25.338 C378.281,25.548 377.609,25.758 377.063,25.758 C375.719,25.758 375.089,25.086 375.089,23.994 C375.089,23.742 375.131,23.406 375.173,23.154 L377.105,14.334 L381.221,14.334 L382.313,9.714 L378.197,9.714 L379.415,4.17 L374.039,4.17 L372.821,9.714 L369.461,9.714 L368.411,14.334 L371.771,14.334 L369.503,24.708 C369.377,25.212 369.335,25.8 369.335,26.094 Z M399.323,12.402 C397.979,10.386 395.543,9.21 392.855,9.21 C385.925,9.21 382.145,15.972 382.145,22.104 C382.145,27.48 385.253,30.504 389.873,30.504 C392.309,30.504 394.241,29.496 395.963,27.48 L395.375,30 L400.751,30 L405.245,9.714 L399.869,9.714 L399.323,12.402 Z M387.731,21.012 C387.731,17.274 390.209,13.956 393.695,13.956 C395.837,13.956 397.559,14.964 398.441,16.308 L396.887,23.364 C395.795,24.75 394.115,25.758 392.225,25.758 C389.663,25.758 387.731,23.91 387.731,21.012 Z M411.209,4.38 C411.209,5.85 412.427,7.11 414.107,7.11 C415.703,7.11 417.677,5.766 417.677,3.456 C417.677,1.986 416.459,0.726 414.779,0.726 C413.183,0.726 411.209,2.028 411.209,4.38 Z M406.043,30 L411.377,30 L415.871,9.714 L410.537,9.714 L406.043,30 Z M430.361,30 L435.695,30 L438.803,16.056 C438.887,15.636 439.013,14.754 439.013,14.376 C439.013,11.268 436.577,9.21 432.671,9.21 C429.689,9.21 427.505,10.806 425.909,12.36 L426.497,9.714 L421.163,9.714 L416.669,30 L422.003,30 L425.027,16.308 C426.203,15.174 427.967,13.956 430.151,13.956 C431.747,13.956 433.259,14.67 433.259,16.56 C433.259,16.98 433.133,17.526 433.049,17.904 L430.361,30 Z M457.661,27.312 C459.005,29.328 461.357,30.504 464.129,30.504 C471.017,30.504 474.797,23.7 474.797,17.61 C474.797,12.234 471.647,9.21 467.111,9.21 C464.675,9.21 462.701,10.218 460.979,12.234 L461.567,9.714 L456.233,9.714 L450.017,37.728 L455.351,37.728 L457.661,27.312 Z M469.211,18.702 C469.211,22.44 466.775,25.758 463.247,25.758 C461.105,25.758 459.383,24.792 458.501,23.448 L460.055,16.392 C461.189,15.006 462.827,13.956 464.717,13.956 C467.279,13.956 469.211,15.804 469.211,18.702 Z M476.225,30 L481.559,30 L484.457,16.728 C485.675,15.384 487.565,14.292 489.497,14.292 C490.379,14.292 491.135,14.46 491.471,14.544 L492.605,9.252 C489.413,9.252 487.229,10.47 485.423,12.402 L486.053,9.714 L480.719,9.714 L476.225,30 Z M496.511,4.38 C496.511,5.85 497.729,7.11 499.409,7.11 C501.005,7.11 502.979,5.766 502.979,3.456 C502.979,1.986 501.761,0.726 500.081,0.726 C498.485,0.726 496.511,2.028 496.511,4.38 Z M491.345,30 L496.679,30 L501.173,9.714 L495.839,9.714 L491.345,30 Z M501.089,30 L517.637,30 L518.645,25.338 L509.405,25.338 L521.123,13.578 L521.963,9.714 L505.583,9.714 L504.575,14.376 L513.521,14.376 L501.971,26.01 L501.089,30 Z M522.887,21.39 C522.887,27.06 527.003,30.504 533.387,30.504 C535.907,30.504 538.595,29.748 540.569,28.404 L538.889,24.75 C537.629,25.716 535.529,26.262 533.765,26.262 C530.027,26.262 528.221,23.784 528.221,22.062 L528.221,21.558 L543.299,21.558 C543.509,20.886 543.719,19.458 543.719,18.282 C543.719,12.612 539.771,9.21 534.605,9.21 C527.843,9.21 522.887,14.796 522.887,21.39 Z M538.931,17.946 L528.767,17.946 C529.229,15.72 531.413,13.452 534.269,13.452 C537.503,13.452 538.931,15.51 538.931,17.526 L538.931,17.946 Z M115.844,62.402 C114.5,60.386 112.064,59.21 109.376,59.21 C102.446,59.21 98.666,65.972 98.666,72.104 C98.666,77.48 101.774,80.504 106.394,80.504 C108.83,80.504 110.762,79.496 112.484,77.48 L111.896,80 L117.272,80 L121.766,59.714 L116.39,59.714 L115.844,62.402 Z M104.252,71.012 C104.252,67.274 106.73,63.956 110.216,63.956 C112.358,63.956 114.08,64.964 114.962,66.308 L113.408,73.364 C112.316,74.75 110.636,75.758 108.746,75.758 C106.184,75.758 104.252,73.91 104.252,71.012 Z M121.808,76.85 C124.076,79.244 127.688,80.504 131.384,80.504 C136.928,80.504 140.162,77.27 140.162,73.406 C140.162,69.71 136.34,68.45 133.358,67.526 C131.384,66.854 129.872,66.266 129.872,65.258 C129.872,64.166 130.922,63.284 132.812,63.284 C135.29,63.284 137.81,64.628 138.818,65.888 L141.506,62.528 C139.574,60.512 136.34,59.21 132.896,59.21 C127.478,59.21 124.538,62.528 124.538,66.056 C124.538,69.5 128.192,70.802 131.09,71.768 C133.106,72.44 134.828,73.07 134.828,74.288 C134.828,75.464 133.694,76.43 131.888,76.43 C128.948,76.43 125.966,74.75 124.748,73.322 L121.808,76.85 Z M152.594,76.85 C154.862,79.244 158.474,80.504 162.17,80.504 C167.714,80.504 170.948,77.27 170.948,73.406 C170.948,69.71 167.126,68.45 164.144,67.526 C162.17,66.854 160.658,66.266 160.658,65.258 C160.658,64.166 161.708,63.284 163.598,63.284 C166.076,63.284 168.596,64.628 169.604,65.888 L172.292,62.528 C170.36,60.512 167.126,59.21 163.682,59.21 C158.264,59.21 155.324,62.528 155.324,66.056 C155.324,69.5 158.978,70.802 161.876,71.768 C163.892,72.44 165.614,73.07 165.614,74.288 C165.614,75.464 164.48,76.43 162.674,76.43 C159.734,76.43 156.752,74.75 155.534,73.322 L152.594,76.85 Z M174.14,71.306 C174.14,76.598 177.71,80.504 184.178,80.504 C191.066,80.504 195.938,74.75 195.938,68.45 C195.938,63.158 192.326,59.21 185.858,59.21 C179.012,59.21 174.14,64.964 174.14,71.306 Z M190.394,68.702 C190.394,72.356 187.958,75.758 184.388,75.758 C181.406,75.758 179.642,73.952 179.642,71.012 C179.642,67.4 182.078,63.956 185.69,63.956 C188.63,63.956 190.394,65.762 190.394,68.702 Z M198.248,71.306 C198.248,76.598 201.818,80.504 208.286,80.504 C215.174,80.504 220.046,74.75 220.046,68.45 C220.046,63.158 216.434,59.21 209.966,59.21 C203.12,59.21 198.248,64.964 198.248,71.306 Z M214.502,68.702 C214.502,72.356 212.066,75.758 208.496,75.758 C205.514,75.758 203.75,73.952 203.75,71.012 C203.75,67.4 206.186,63.956 209.798,63.956 C212.738,63.956 214.502,65.762 214.502,68.702 Z M235.292,80 L240.626,80 L243.734,66.056 C243.818,65.636 243.944,64.754 243.944,64.376 C243.944,61.268 241.508,59.21 237.602,59.21 C234.62,59.21 232.436,60.806 230.84,62.36 L231.428,59.714 L226.094,59.714 L221.6,80 L226.934,80 L229.958,66.308 C231.134,65.174 232.898,63.956 235.082,63.956 C236.678,63.956 238.19,64.67 238.19,66.56 C238.19,66.98 238.064,67.526 237.98,67.904 L235.292,80 Z M274.562,62.402 C273.218,60.386 270.782,59.21 268.094,59.21 C261.164,59.21 257.384,65.972 257.384,72.104 C257.384,77.48 260.492,80.504 265.112,80.504 C267.548,80.504 269.48,79.496 271.202,77.48 L270.614,80 L275.99,80 L280.484,59.714 L275.108,59.714 L274.562,62.402 Z M262.97,71.012 C262.97,67.274 265.448,63.956 268.934,63.956 C271.076,63.956 272.798,64.964 273.68,66.308 L272.126,73.364 C271.034,74.75 269.354,75.758 267.464,75.758 C264.902,75.758 262.97,73.91 262.97,71.012 Z M280.526,76.85 C282.794,79.244 286.406,80.504 290.102,80.504 C295.646,80.504 298.88,77.27 298.88,73.406 C298.88,69.71 295.058,68.45 292.076,67.526 C290.102,66.854 288.59,66.266 288.59,65.258 C288.59,64.166 289.64,63.284 291.53,63.284 C294.008,63.284 296.528,64.628 297.536,65.888 L300.224,62.528 C298.292,60.512 295.058,59.21 291.614,59.21 C286.196,59.21 283.256,62.528 283.256,66.056 C283.256,69.5 286.91,70.802 289.808,71.768 C291.824,72.44 293.546,73.07 293.546,74.288 C293.546,75.464 292.412,76.43 290.606,76.43 C287.666,76.43 284.684,74.75 283.466,73.322 L280.526,76.85 Z M317.99,77.312 C319.334,79.328 321.686,80.504 324.458,80.504 C331.346,80.504 335.126,73.7 335.126,67.61 C335.126,62.234 331.976,59.21 327.44,59.21 C325.004,59.21 323.03,60.218 321.308,62.234 L321.896,59.714 L316.562,59.714 L310.346,87.728 L315.68,87.728 L317.99,77.312 Z M329.54,68.702 C329.54,72.44 327.104,75.758 323.576,75.758 C321.434,75.758 319.712,74.792 318.83,73.448 L320.384,66.392 C321.518,65.006 323.156,63.956 325.046,63.956 C327.608,63.956 329.54,65.804 329.54,68.702 Z M337.31,71.306 C337.31,76.598 340.88,80.504 347.348,80.504 C354.236,80.504 359.108,74.75 359.108,68.45 C359.108,63.158 355.496,59.21 349.028,59.21 C342.182,59.21 337.31,64.964 337.31,71.306 Z M353.564,68.702 C353.564,72.356 351.128,75.758 347.558,75.758 C344.576,75.758 342.812,73.952 342.812,71.012 C342.812,67.4 345.248,63.956 348.86,63.956 C351.8,63.956 353.564,65.762 353.564,68.702 Z M359.906,76.85 C362.174,79.244 365.786,80.504 369.482,80.504 C375.026,80.504 378.26,77.27 378.26,73.406 C378.26,69.71 374.438,68.45 371.456,67.526 C369.482,66.854 367.97,66.266 367.97,65.258 C367.97,64.166 369.02,63.284 370.91,63.284 C373.388,63.284 375.908,64.628 376.916,65.888 L379.604,62.528 C377.672,60.512 374.438,59.21 370.994,59.21 C365.576,59.21 362.636,62.528 362.636,66.056 C362.636,69.5 366.29,70.802 369.188,71.768 C371.204,72.44 372.926,73.07 372.926,74.288 C372.926,75.464 371.792,76.43 369.986,76.43 C367.046,76.43 364.064,74.75 362.846,73.322 L359.906,76.85 Z M379.94,76.85 C382.208,79.244 385.82,80.504 389.516,80.504 C395.06,80.504 398.294,77.27 398.294,73.406 C398.294,69.71 394.472,68.45 391.49,67.526 C389.516,66.854 388.004,66.266 388.004,65.258 C388.004,64.166 389.054,63.284 390.944,63.284 C393.422,63.284 395.942,64.628 396.95,65.888 L399.638,62.528 C397.706,60.512 394.472,59.21 391.028,59.21 C385.61,59.21 382.67,62.528 382.67,66.056 C382.67,69.5 386.324,70.802 389.222,71.768 C391.238,72.44 392.96,73.07 392.96,74.288 C392.96,75.464 391.826,76.43 390.02,76.43 C387.08,76.43 384.098,74.75 382.88,73.322 L379.94,76.85 Z M405.896,54.38 C405.896,55.85 407.114,57.11 408.794,57.11 C410.39,57.11 412.364,55.766 412.364,53.456 C412.364,51.986 411.146,50.726 409.466,50.726 C407.87,50.726 405.896,52.028 405.896,54.38 Z M400.73,80 L406.064,80 L410.558,59.714 L405.224,59.714 L400.73,80 Z M417.278,77.312 C418.622,79.328 420.974,80.504 423.746,80.504 C430.634,80.504 434.414,73.7 434.414,67.61 C434.414,62.234 431.264,59.21 426.728,59.21 C424.292,59.21 422.318,60.218 420.596,62.234 L422.864,51.986 L417.53,51.986 L411.356,80 L416.69,80 L417.278,77.312 Z M428.828,68.702 C428.828,72.44 426.392,75.758 422.864,75.758 C420.722,75.758 419,74.792 418.118,73.448 L419.672,66.392 C420.806,65.006 422.444,63.956 424.334,63.956 C426.896,63.956 428.828,65.804 428.828,68.702 Z M435.968,80 L441.302,80 L447.476,51.986 L442.142,51.986 L435.968,80 Z M447.392,71.39 C447.392,77.06 451.508,80.504 457.892,80.504 C460.412,80.504 463.1,79.748 465.074,78.404 L463.394,74.75 C462.134,75.716 460.034,76.262 458.27,76.262 C454.532,76.262 452.726,73.784 452.726,72.062 L452.726,71.558 L467.804,71.558 C468.014,70.886 468.224,69.458 468.224,68.282 C468.224,62.612 464.276,59.21 459.11,59.21 C452.348,59.21 447.392,64.796 447.392,71.39 Z M463.436,67.946 L453.272,67.946 C453.734,65.72 455.918,63.452 458.774,63.452 C462.008,63.452 463.436,65.51 463.436,67.526 L463.436,67.946 Z M475.196,63.41 C478.682,61.688 481.37,58.202 481.37,55.01 C481.37,52.742 479.774,51.566 478.094,51.566 C476.204,51.566 474.356,53.204 474.356,55.178 C474.356,56.984 475.574,57.908 476.96,57.908 L477.38,57.908 C476.708,59.378 474.776,60.764 473.264,61.436 L475.196,63.41 Z M483.722,63.41 C487.208,61.688 489.896,58.202 489.896,55.01 C489.896,52.742 488.342,51.566 486.62,51.566 C484.73,51.566 482.924,53.204 482.924,55.178 C482.924,56.984 484.1,57.908 485.486,57.908 L485.948,57.908 C485.276,59.378 483.344,60.764 481.832,61.436 L483.722,63.41 Z" id="“…must-win-a-certain"></path>
            </g>
        </g>
    </g>
</svg>